# xmcd CD database file
#
# Track frame offsets:
#	150
#	12206
#	31179
#	41453
#	53073
#	64473
#	72648
#	78724
#	91548
#	93949
#	101373
#	115773
#	131222
#	142922
#	150122
#	169021
#	179071
#	187020
#	202095
#	220469
#	234943
#	247468
#	259698
#
# Disc length: 3581 seconds
#
# Revision: 2
# Processed by: cddbd v1.5PL3 Copyright (c) Steve Scherf et al.
# Submitted via: CDex 1.50
#
DISCID=450dfb17
DTITLE=Beatnik Filmstars - Beezer
DYEAR=1900
DGENRE=
TTITLE0=bigot sponger haircut policy
TTITLE1=tearing apart my world
TTITLE2=8 sq ft six acoustic
TTITLE3=revolt into style
TTITLE4=flake
TTITLE5=vicious bookseller
TTITLE6=50/50 split
TTITLE7=charlie batman
TTITLE8=white relief
TTITLE9=skill
TTITLE10=my alter ego
TTITLE11=totally lost control completely
TTITLE12=albert trumans last xxmas
TTITLE13=sing elvis
TTITLE14=blind painter injured
TTITLE15=raw
TTITLE16=the party
TTITLE17=gane's space nightmare
TTITLE18=diseaser
TTITLE19=gum
TTITLE20=dogstar
TTITLE21=killing cowboys
TTITLE22=national pool drama
EXTD=
EXTT0=
EXTT1=
EXTT2=
EXTT3=
EXTT4=
EXTT5=
EXTT6=
EXTT7=
EXTT8=
EXTT9=
EXTT10=
EXTT11=
EXTT12=
EXTT13=
EXTT14=
EXTT15=
EXTT16=
EXTT17=
EXTT18=
EXTT19=
EXTT20=
EXTT21=
EXTT22=
PLAYORDER=
